<svg xmlns="http://www.w3.org/2000/svg" viewBox="0 0 200 200"><circle cx="100" cy="100" r="100" fill="#1A1A1A"/><path d="M569.00 -708.00Q565.00 -664.00 563.50 -623.00Q562.00 -582.00 562.00 -560.00Q562.00 -540.00 563.00 -522.00Q564.00 -504.00 565.00 -492.00L542.00 -492.00Q532.00 -565.00 511.00 -607.50Q490.00 -650.00 456.50 -667.50Q423.00 -685.00 378.00 -685.00L337.00 -685.00Q308.00 -685.00 293.00 -680.00Q278.00 -675.00 273.00 -660.00Q268.00 -645.00 268.00 -614.00L268.00 -366.00L300.00 -366.00Q330.00 -366.00 351.00 -378.50Q372.00 -391.00 385.50 -411.50Q399.00 -432.00 407.00 -455.00Q415.00 -478.00 419.00 -498.00L442.00 -498.00Q438.00 -441.00 438.50 -411.00Q439.00 -381.00 439.00 -356.00Q439.00 -331.00 440.00 -301.00Q441.00 -271.00 445.00 -214.00L422.00 -214.00Q417.00 -249.00 403.50 -279.00Q390.00 -309.00 365.00 -327.50Q340.00 -346.00 300.00 -346.00L268.00 -346.00L268.00 -94.00Q268.00 -63.00 273.00 -48.00Q278.00 -33.00 293.00 -28.00Q308.00 -23.00 337.00 -23.00L386.00 -23.00Q431.00 -23.00 465.50 -42.50Q500.00 -62.00 524.50 -109.00Q549.00 -156.00 562.00 -236.00L585.00 -236.00Q582.00 -204.00 582.00 -152.00Q582.00 -129.00 583.00 -87.00Q584.00 -45.00 589.00 0.00Q538.00 -2.00 474.00 -2.50Q410.00 -3.00 360.00 -3.00L296.00 -3.00Q257.00 -3.00 212.00 -2.50Q167.00 -2.00 121.00 -1.50Q75.00 -1.00 34.00 0.00L34.00 -20.00Q66.00 -22.00 82.00 -28.00Q98.00 -34.00 103.50 -52.00Q109.00 -70.00 109.00 -106.00L109.00 -602.00Q109.00 -639.00 103.50 -656.50Q98.00 -674.00 81.50 -680.50Q65.00 -687.00 34.00 -688.00L34.00 -708.00Q75.00 -707.00 121.00 -706.50Q167.00 -706.00 212.00 -705.50Q257.00 -705.00 296.00 -705.00L360.00 -705.00Q406.00 -705.00 464.50 -705.50Q523.00 -706.00 569.00 -708.00Z" fill="#F5F5F0" transform="translate(52.22 160) scale(0.17)"/><circle cx="152" cy="48" r="26" fill="#C8A84B"/></svg>
